<?xml version="1.0" standalone="no"?>
<!DOCTYPE svg PUBLIC "-//W3C//DTD SVG 20010904//EN"
 "http://www.w3.org/TR/2001/REC-SVG-20010904/DTD/svg10.dtd">
<svg version="1.0" xmlns="http://www.w3.org/2000/svg"
 width="826.000000pt" height="826.000000pt" viewBox="0 0 826.000000 826.000000"
 preserveAspectRatio="xMidYMid meet">

<g transform="translate(0.000000,826.000000) scale(0.100000,-0.100000)"
fill="#000000" stroke="none">
<path d="M0 6131 l0 -2130 47 -3 c39 -2 48 -7 51 -23 2 -13 0 -16 -5 -8 -5 7
-23 10 -51 6 l-42 -6 0 -1983 0 -1984 4130 0 4130 0 0 1985 0 1985 -102 1
c-57 1 -226 2 -375 2 -158 1 -273 5 -273 10 0 5 -11 7 -24 5 -14 -3 -31 -1
-38 3 -7 5 173 9 400 9 l412 0 0 2130 0 2130 -4130 0 -4130 0 0 -2129z m7540
632 c0 -5 -39 -10 -86 -11 -86 -3 -103 -9 -117 -44 -3 -10 -15 -18 -25 -18
-26 0 -34 -11 -21 -27 9 -10 5 -13 -22 -12 -19 1 -27 3 -17 6 19 5 31 30 18
38 -6 4 -10 3 -10 -2 0 -4 -42 -7 -92 -6 -131 4 -138 5 -138 13 0 4 -17 4 -37
-1 -44 -9 -54 -4 -28 15 16 12 14 12 -16 8 -19 -3 -28 -7 -21 -9 21 -8 13 -20
-13 -20 -14 0 -25 4 -25 9 0 5 5 6 10 3 6 -3 10 -2 10 4 0 15 -14 21 -29 11
-8 -4 -10 -13 -7 -19 4 -6 2 -11 -3 -11 -6 0 -11 6 -11 13 0 8 -4 7 -11 -3 -8
-12 -9 -9 -5 11 4 19 1 29 -10 33 -23 9 -36 7 -29 -4 3 -5 2 -10 -3 -10 -6 0
-9 -7 -8 -16 0 -9 -5 -18 -12 -20 -7 -1 -8 0 -2 3 16 8 12 23 -7 23 -15 0 -16
2 -3 10 8 5 12 11 10 13 -3 3 -54 9 -115 14 -84 7 5 9 383 11 270 2 492 -1
492 -5z m-705 -33 c3 -5 1 -10 -4 -10 -6 0 -11 5 -11 10 0 6 2 10 4 10 3 0 8
-4 11 -10z m840 -40 c-10 -11 -20 -18 -22 -16 -6 5 30 44 36 39 2 -1 -4 -12
-14 -23z m15 -30 c0 -5 -19 -9 -42 -9 l-43 2 35 7 c19 4 38 8 43 9 4 0 7 -3 7
-9z m-177 -7 c-24 -2 -62 -2 -85 0 -24 2 -5 4 42 4 47 0 66 -2 43 -4z m74 1
c-3 -3 -12 -4 -19 -1 -8 3 -5 6 6 6 11 1 17 -2 13 -5z m-7317 -144 c0 -5 -5
-10 -11 -10 -5 0 -7 5 -4 10 3 6 8 10 11 10 2 0 4 -4 4 -10z m260 -105 c0 -7
-70 -35 -84 -34 -6 0 7 9 29 19 42 20 55 23 55 15z m-100 -42 c-1 -10 -50 -46
-50 -37 0 11 32 44 42 44 4 0 8 -3 8 -7z m3755 -123 c-3 -5 -15 -10 -26 -10
-10 0 -19 5 -19 10 0 6 12 10 26 10 14 0 23 -4 19 -10z m55 6 c0 -9 -30 -14
-35 -6 -4 6 3 10 14 10 12 0 21 -2 21 -4z m30 -6 c0 -5 -4 -10 -10 -10 -5 0
-10 5 -10 10 0 6 5 10 10 10 6 0 10 -4 10 -10z m-107 -53 c7 4 5 -2 -3 -13 -8
-10 -16 -21 -17 -23 -2 -2 -2 11 -2 30 1 19 3 26 6 16 3 -10 9 -14 16 -10z
m-3 -51 c0 -3 -4 -8 -10 -11 -5 -3 -10 -1 -10 4 0 6 5 11 10 11 6 0 10 -2 10
-4z m437 -173 c-2 -32 -3 -8 -3 52 0 61 1 87 3 58 2 -29 2 -78 0 -110z m-437
-138 c0 -41 -4 -77 -10 -80 -6 -4 -10 25 -10 80 0 55 4 84 10 80 6 -3 10 -39
10 -80z m-3652 68 c-10 -2 -28 -2 -40 0 -13 2 -5 4 17 4 22 1 32 -1 23 -4z
m6884 -82 c58 -27 108 -79 89 -90 -9 -6 -10 -11 -2 -15 7 -5 7 -14 -1 -30 -11
-26 -13 -26 -113 -8 -33 7 -76 13 -96 15 -20 2 -42 8 -49 12 -9 5 -11 4 -6 -3
5 -9 0 -9 -18 -2 -14 5 -43 10 -66 12 -22 1 -40 6 -40 10 0 5 -6 8 -12 7 -7
-1 -21 -1 -30 0 -38 2 14 73 77 103 56 26 203 21 267 -11z m-3192 -16 c0 -8
-4 -15 -10 -15 -5 0 -7 7 -4 15 4 8 8 15 10 15 2 0 4 -7 4 -15z m3170 -151 c0
-2 -9 -4 -21 -4 -11 0 -18 4 -14 10 5 8 35 3 35 -6z m-4037 -31 c-13 -2 -35
-2 -50 0 -16 2 -5 4 22 4 28 0 40 -2 28 -4z m-5 -20 c-21 -2 -57 -2 -80 0 -24
2 -7 4 37 4 44 0 63 -2 43 -4z m15 -20 c-13 -2 -33 -2 -45 0 -13 2 -3 4 22 4
25 0 35 -2 23 -4z m2292 -133 c7 -11 -42 -37 -51 -27 -4 3 -4 13 -1 22 7 17
42 21 52 5z m378 -51 c111 -54 236 -146 261 -189 11 -19 16 -32 11 -28 -4 5
-14 0 -21 -10 -15 -22 -48 -21 -91 2 -38 19 -39 24 -15 43 15 13 14 13 -7 2
-19 -9 -45 -7 -123 7 l-99 18 43 13 c36 10 45 10 59 -3 22 -20 70 -33 92 -25
31 11 21 25 -30 41 -26 9 -47 21 -46 27 10 51 11 63 5 63 -4 0 -36 18 -72 40
-83 51 -72 51 33 -1z m-388 -44 c49 -25 84 -45 78 -45 -19 0 -160 67 -167 79
-10 16 -11 16 89 -34z m2475 -29 c0 -9 -30 -14 -35 -6 -4 6 3 10 14 10 12 0
21 -2 21 -4z m-2345 -26 c13 -6 15 -9 5 -9 -8 0 -22 4 -30 9 -18 12 -2 12 25
0z m1170 0 c-3 -5 -10 -10 -16 -10 -5 0 -9 5 -9 10 0 6 7 10 16 10 8 0 12 -4
9 -10z m-1070 -30 c13 -5 14 -9 5 -9 -8 0 -24 4 -35 9 -13 5 -14 9 -5 9 8 0
24 -4 35 -9z m58 -17 c-7 -2 -19 -2 -25 0 -7 3 -2 5 12 5 14 0 19 -2 13 -5z
m367 -93 c0 -5 -5 -10 -11 -10 -5 0 -7 5 -4 10 3 6 8 10 11 10 2 0 4 -4 4 -10z
m-5623 -1142 c-2 -18 -4 -6 -4 27 0 33 2 48 4 33 2 -15 2 -42 0 -60z m60 5
c-2 -16 -4 -5 -4 22 0 28 2 40 4 28 2 -13 2 -35 0 -50z m6183 0 c0 -5 -30 -7
-67 -5 -119 5 -131 9 -30 10 53 1 97 -1 97 -5z m7 -105 c-2 -13 -4 -3 -4 22 0
25 2 35 4 23 2 -13 2 -33 0 -45z m1023 37 c0 -8 -4 -15 -10 -15 -5 0 -10 7
-10 15 0 8 5 15 10 15 6 0 10 -7 10 -15z m7 -117 c-3 -8 -6 -5 -6 6 -1 11 2
17 5 13 3 -3 4 -12 1 -19z m53 12 c0 -5 -4 -10 -10 -10 -5 0 -10 5 -10 10 0 6
5 10 10 10 6 0 10 -4 10 -10z m-493 -22 c-3 -8 -6 -5 -6 6 -1 11 2 17 5 13 3
-3 4 -12 1 -19z m268 12 c4 -6 -7 -10 -27 -9 -27 0 -30 2 -13 9 27 12 33 12
40 0z m105 0 c0 -5 -4 -10 -9 -10 -6 0 -13 5 -16 10 -3 6 1 10 9 10 9 0 16 -4
16 -10z m-5721 -204 c-2 -3 -38 -6 -79 -7 -41 -1 -78 -7 -82 -13 -5 -8 -8 -7
-8 2 0 9 -5 10 -18 3 -10 -5 -103 -12 -207 -16 -180 -6 -265 -17 -265 -33 0
-4 -17 -7 -38 -8 -20 0 -46 -4 -57 -9 -17 -8 -18 -7 -7 7 18 22 110 44 237 57
61 7 124 13 140 15 47 5 389 7 384 2z m5201 -237 c0 -5 5 -7 12 -3 7 4 8 3 4
-4 -4 -7 -17 -12 -29 -12 -17 0 -19 2 -8 9 11 7 10 10 -5 14 -16 4 -16 5 4 6
12 0 22 -4 22 -10z m-1023 -475 c-7 -7 -199 -6 -206 1 -2 3 44 5 104 5 60 0
106 -3 102 -6z m-3762 -354 c8 -13 -5 -13 -25 0 -13 8 -13 10 2 10 9 0 20 -4
23 -10z m-32 -16 c-7 -3 -9 -13 -6 -22 6 -14 5 -15 -9 -2 -19 17 -14 30 10 29
10 0 12 -3 5 -5z m-58 -54 c3 -5 1 -10 -4 -10 -6 0 -11 5 -11 10 0 6 2 10 4
10 3 0 8 -4 11 -10z m5470 -80 c122 -6 108 -7 -112 -6 -139 0 -253 4 -253 9 0
8 172 7 365 -3z m-6375 -540 c0 -17 -7 -20 -40 -20 -33 0 -40 3 -40 20 0 17 7
20 40 20 33 0 40 -3 40 -20z m-1172 -583 c-4 -64 -9 -83 -24 -94 -23 -17 -58
-13 -60 7 0 9 1 10 3 3 3 -7 14 -13 26 -12 21 0 21 1 2 9 -11 5 -15 9 -8 9 21
2 41 30 36 51 -4 14 -14 20 -34 20 -28 0 -29 2 -29 45 0 25 4 45 8 45 5 0 8
-14 7 -31 -2 -27 1 -30 24 -27 21 2 25 8 23 28 -2 14 -11 31 -20 39 -16 13
-16 13 0 8 10 -3 20 -1 24 5 15 24 26 -29 22 -105z m-118 26 c0 -42 -3 -74 -6
-70 -10 10 -12 147 -3 147 5 0 9 -34 9 -77z m-50 -63 c0 -24 -35 -28 -44 -5
-3 8 -1 15 3 15 5 0 12 -6 14 -12 3 -8 6 -6 6 5 1 24 21 22 21 -3z m-120 -5
c0 -8 -9 -15 -20 -15 -25 0 -26 17 -2 23 9 3 18 5 20 6 1 0 2 -6 2 -14z m60
-8 c10 -4 8 -6 -7 -6 -16 -1 -23 5 -23 17 0 10 3 13 8 6 4 -6 14 -14 22 -17z
m106 -36 c-4 -6 -17 -10 -29 -10 -17 1 -18 2 -4 6 9 2 17 12 17 21 0 12 3 13
11 5 6 -6 8 -16 5 -22z"/>
<path d="M1505 1870 c-4 -6 3 -10 14 -10 25 0 27 6 6 13 -8 4 -17 2 -20 -3z"/>
</g>
</svg>
